<svg width="16" height="17" viewBox="0 0 16 17" fill="none" xmlns="http://www.w3.org/2000/svg">
<path fill-rule="evenodd" clip-rule="evenodd" d="M10.4119 5.03494C10.4119 4.38413 10.9395 3.85654 11.5903 3.85654C12.2411 3.85654 12.7687 4.38413 12.7687 5.03494C12.7687 5.68574 12.2411 6.21333 11.5903 6.21333C10.9395 6.21333 10.4119 5.68574 10.4119 5.03494ZM11.5903 2.95654C10.4424 2.95654 9.51191 3.88707 9.51191 5.03494C9.51191 5.69163 9.81647 6.27719 10.292 6.65807C9.18796 7.07301 8.33538 8.00184 8.02571 9.15316C7.88628 9.67156 8.33451 10.1143 8.87133 10.1143H14.3094C14.8462 10.1143 15.2944 9.67156 15.155 9.15316C14.8453 8.00182 13.9927 7.07298 12.8886 6.65804C13.3642 6.27716 13.6687 5.69161 13.6687 5.03494C13.6687 3.88707 12.7382 2.95654 11.5903 2.95654ZM11.5904 7.32326C12.8159 7.32326 13.8589 8.11391 14.2334 9.21429H8.94735C9.3218 8.11391 10.3648 7.32326 11.5904 7.32326Z" fill="#707070"/>
<mask id="path-2-outside-1_1512_28371" maskUnits="userSpaceOnUse" x="4" y="3.04834" width="10" height="10" fill="black">
<!--<rect fill="white" x="4" y="3.04834" width="10" height="10"/>-->
<path fill-rule="evenodd" clip-rule="evenodd" d="M7.67987 6.35767C7.67987 5.63454 8.26608 5.04834 8.9892 5.04834C9.71232 5.04834 10.2985 5.63454 10.2985 6.35767C10.2985 7.08079 9.71232 7.66699 8.9892 7.66699C8.26608 7.66699 7.67987 7.08079 7.67987 6.35767ZM8.9892 4.04834C7.71379 4.04834 6.67987 5.08226 6.67987 6.35767C6.67987 7.08754 7.01847 7.73832 7.54715 8.16152C6.32017 8.62249 5.37268 9.65461 5.02857 10.934C4.87365 11.51 5.37168 12.0019 5.96815 12.0019H12.0104C12.6069 12.0019 13.1049 11.51 12.95 10.934C12.6059 9.65457 11.6583 8.62242 10.4313 8.16147C10.96 7.73828 11.2985 7.08751 11.2985 6.35767C11.2985 5.08226 10.2646 4.04834 8.9892 4.04834ZM8.98929 8.90078C10.351 8.90078 11.5099 9.77928 11.926 11.0019H6.05262C6.46867 9.77928 7.62754 8.90078 8.98929 8.90078Z"/>
</mask>
<path fill-rule="evenodd" clip-rule="evenodd" d="M7.67987 6.35767C7.67987 5.63454 8.26608 5.04834 8.9892 5.04834C9.71232 5.04834 10.2985 5.63454 10.2985 6.35767C10.2985 7.08079 9.71232 7.66699 8.9892 7.66699C8.26608 7.66699 7.67987 7.08079 7.67987 6.35767ZM8.9892 4.04834C7.71379 4.04834 6.67987 5.08226 6.67987 6.35767C6.67987 7.08754 7.01847 7.73832 7.54715 8.16152C6.32017 8.62249 5.37268 9.65461 5.02857 10.934C4.87365 11.51 5.37168 12.0019 5.96815 12.0019H12.0104C12.6069 12.0019 13.1049 11.51 12.95 10.934C12.6059 9.65457 11.6583 8.62242 10.4313 8.16147C10.96 7.73828 11.2985 7.08751 11.2985 6.35767C11.2985 5.08226 10.2646 4.04834 8.9892 4.04834ZM8.98929 8.90078C10.351 8.90078 11.5099 9.77928 11.926 11.0019H6.05262C6.46867 9.77928 7.62754 8.90078 8.98929 8.90078Z" fill="#707070"/>
<path d="M7.54715 8.16152L7.81303 8.86922C8.06749 8.77362 8.25103 8.54878 8.29376 8.28034C8.33648 8.01189 8.2318 7.74118 8.01959 7.57131L7.54715 8.16152ZM5.02857 10.934L4.29852 10.7376L5.02857 10.934ZM12.95 10.934L12.2199 11.1304V11.1304L12.95 10.934ZM10.4313 8.16147L9.95884 7.57128C9.74664 7.74116 9.64197 8.01187 9.6847 8.28031C9.72743 8.54876 9.91098 8.77359 10.1654 8.86918L10.4313 8.16147ZM11.926 11.0019V11.7579C12.1698 11.7579 12.3987 11.6403 12.5406 11.442C12.6826 11.2438 12.7202 10.9892 12.6417 10.7584L11.926 11.0019ZM6.05262 11.0019L5.33692 10.7584C5.25837 10.9892 5.29598 11.2438 5.43794 11.442C5.5799 11.6403 5.80877 11.7579 6.05262 11.7579V11.0019ZM8.9892 4.29234C7.84855 4.29234 6.92387 5.21702 6.92387 6.35767H8.43587C8.43587 6.05207 8.6836 5.80434 8.9892 5.80434V4.29234ZM11.0545 6.35767C11.0545 5.21702 10.1298 4.29234 8.9892 4.29234V5.80434C9.29479 5.80434 9.54252 6.05207 9.54252 6.35767H11.0545ZM8.9892 8.42299C10.1298 8.42299 11.0545 7.49831 11.0545 6.35767H9.54252C9.54252 6.66326 9.29479 6.91099 8.9892 6.91099V8.42299ZM6.92387 6.35767C6.92387 7.49831 7.84855 8.42299 8.9892 8.42299V6.91099C8.6836 6.91099 8.43587 6.66326 8.43587 6.35767H6.92387ZM7.43587 6.35767C7.43587 5.49979 8.13132 4.80434 8.9892 4.80434V3.29234C7.29626 3.29234 5.92387 4.66473 5.92387 6.35767H7.43587ZM8.01959 7.57131C7.66243 7.28542 7.43587 6.84826 7.43587 6.35767H5.92387C5.92387 7.32682 6.3745 8.19122 7.07471 8.75172L8.01959 7.57131ZM5.75863 11.1304C6.03892 10.0882 6.81224 9.24521 7.81303 8.86922L7.28127 7.45381C5.82811 7.99976 4.70643 9.22101 4.29852 10.7376L5.75863 11.1304ZM5.96815 11.2459C5.87348 11.2459 5.80397 11.2058 5.7725 11.1716C5.75851 11.1564 5.75616 11.1473 5.75615 11.1473C5.75609 11.1471 5.756 11.1469 5.756 11.1457C5.756 11.1447 5.75608 11.1398 5.75863 11.1304L4.29852 10.7376C4.14723 11.3001 4.32274 11.8296 4.66068 12.1963C4.98861 12.5521 5.46635 12.7579 5.96815 12.7579V11.2459ZM12.0104 11.2459H5.96815V12.7579H12.0104V11.2459ZM12.2199 11.1304C12.2225 11.1398 12.2226 11.1447 12.2226 11.1457C12.2226 11.1469 12.2225 11.1471 12.2224 11.1473C12.2224 11.1473 12.2201 11.1564 12.2061 11.1716C12.1746 11.2058 12.1051 11.2459 12.0104 11.2459V12.7579C12.5122 12.7579 12.99 12.5521 13.3179 12.1963C13.6558 11.8296 13.8313 11.3001 13.6801 10.7376L12.2199 11.1304ZM10.1654 8.86918C11.1663 9.24516 11.9396 10.0882 12.2199 11.1304L13.6801 10.7376C13.2721 9.22096 12.1504 7.99968 10.6972 7.45376L10.1654 8.86918ZM10.5425 6.35767C10.5425 6.84824 10.316 7.28539 9.95884 7.57128L10.9038 8.75166C11.6039 8.19116 12.0545 7.32678 12.0545 6.35767H10.5425ZM8.9892 4.80434C9.84708 4.80434 10.5425 5.49979 10.5425 6.35767H12.0545C12.0545 4.66473 10.6821 3.29234 8.9892 3.29234V4.80434ZM12.6417 10.7584C12.1244 9.23825 10.684 8.14478 8.98929 8.14478V9.65678C10.018 9.65678 10.8954 10.3203 11.2103 11.2455L12.6417 10.7584ZM6.05262 11.7579H11.926V10.2459H6.05262V11.7579ZM8.98929 8.14478C7.29454 8.14478 5.8542 9.23825 5.33692 10.7584L6.76831 11.2455C7.08313 10.3203 7.96054 9.65678 8.98929 9.65678V8.14478Z" fill="#F9F9F9" mask="url(#path-2-outside-1_1512_28371)"/>
<mask id="path-4-outside-2_1512_28371" maskUnits="userSpaceOnUse" x="0" y="4.55664" width="11" height="11" fill="black">
<!--<rect fill="white" y="4.55664" width="11" height="11"/>-->
<path fill-rule="evenodd" clip-rule="evenodd" d="M3.92211 8.067C3.92211 7.23285 4.59832 6.55664 5.43247 6.55664C6.26662 6.55664 6.94283 7.23285 6.94283 8.067C6.94283 8.90115 6.26662 9.57736 5.43247 9.57736C4.59832 9.57736 3.92211 8.90115 3.92211 8.067ZM5.43247 5.55664C4.04603 5.55664 2.92211 6.68057 2.92211 8.067C2.92211 8.87256 3.30153 9.58949 3.89142 10.0488C2.49843 10.5494 1.4198 11.7091 1.03175 13.1519C0.859611 13.7919 1.41298 14.3385 2.07572 14.3385H8.78936C9.4521 14.3385 10.0055 13.7919 9.83333 13.1519C9.44527 11.7091 8.3666 10.5493 6.97356 10.0488C7.56342 9.58945 7.94283 8.87254 7.94283 8.067C7.94283 6.68057 6.8189 5.55664 5.43247 5.55664ZM2.07572 13.3385C2.05496 13.3385 2.03626 13.3353 2.02031 13.3304C2.45486 11.8563 3.81943 10.7816 5.43254 10.7816C7.04565 10.7816 8.41022 11.8563 8.84477 13.3304C8.82882 13.3353 8.81012 13.3385 8.78936 13.3385H2.07572Z"/>
</mask>
<path fill-rule="evenodd" clip-rule="evenodd" d="M3.92211 8.067C3.92211 7.23285 4.59832 6.55664 5.43247 6.55664C6.26662 6.55664 6.94283 7.23285 6.94283 8.067C6.94283 8.90115 6.26662 9.57736 5.43247 9.57736C4.59832 9.57736 3.92211 8.90115 3.92211 8.067ZM5.43247 5.55664C4.04603 5.55664 2.92211 6.68057 2.92211 8.067C2.92211 8.87256 3.30153 9.58949 3.89142 10.0488C2.49843 10.5494 1.4198 11.7091 1.03175 13.1519C0.859611 13.7919 1.41298 14.3385 2.07572 14.3385H8.78936C9.4521 14.3385 10.0055 13.7919 9.83333 13.1519C9.44527 11.7091 8.3666 10.5493 6.97356 10.0488C7.56342 9.58945 7.94283 8.87254 7.94283 8.067C7.94283 6.68057 6.8189 5.55664 5.43247 5.55664ZM2.07572 13.3385C2.05496 13.3385 2.03626 13.3353 2.02031 13.3304C2.45486 11.8563 3.81943 10.7816 5.43254 10.7816C7.04565 10.7816 8.41022 11.8563 8.84477 13.3304C8.82882 13.3353 8.81012 13.3385 8.78936 13.3385H2.07572Z" fill="#707070"/>
<path d="M3.89142 10.0488L4.16194 10.8017C4.43639 10.7031 4.63543 10.463 4.68141 10.175C4.7274 9.887 4.61303 9.59681 4.38294 9.41764L3.89142 10.0488ZM1.03175 13.1519L1.80429 13.3597H1.80429L1.03175 13.1519ZM9.83333 13.1519L10.6059 12.9441L9.83333 13.1519ZM6.97356 10.0488L6.48203 9.41761C6.25194 9.59679 6.13758 9.88698 6.18357 10.175C6.22956 10.4629 6.42861 10.7031 6.70306 10.8017L6.97356 10.0488ZM2.02031 13.3304L1.25296 13.1042C1.12895 13.5249 1.36676 13.967 1.78612 14.0954L2.02031 13.3304ZM8.84477 13.3304L9.07895 14.0954C9.49832 13.967 9.73614 13.5249 9.61212 13.1042L8.84477 13.3304ZM5.43247 5.75664C4.15649 5.75664 3.12211 6.79102 3.12211 8.067H4.72211C4.72211 7.67468 5.04015 7.35664 5.43247 7.35664V5.75664ZM7.74283 8.067C7.74283 6.79102 6.70845 5.75664 5.43247 5.75664V7.35664C5.82479 7.35664 6.14283 7.67468 6.14283 8.067H7.74283ZM5.43247 10.3774C6.70845 10.3774 7.74283 9.34298 7.74283 8.067H6.14283C6.14283 8.45932 5.82479 8.77736 5.43247 8.77736V10.3774ZM3.12211 8.067C3.12211 9.34298 4.15649 10.3774 5.43247 10.3774V8.77736C5.04015 8.77736 4.72211 8.45932 4.72211 8.067H3.12211ZM3.72211 8.067C3.72211 7.1224 4.48786 6.35664 5.43247 6.35664V4.75664C3.60421 4.75664 2.12211 6.23874 2.12211 8.067H3.72211ZM4.38294 9.41764C3.97932 9.10334 3.72211 8.61541 3.72211 8.067H2.12211C2.12211 9.1297 2.62375 10.0756 3.3999 10.68L4.38294 9.41764ZM1.80429 13.3597C2.12383 12.1716 3.01367 11.2143 4.16194 10.8017L3.6209 9.29596C1.9832 9.88442 0.715763 11.2466 0.259202 12.9441L1.80429 13.3597ZM2.07572 13.5385C1.95976 13.5385 1.87173 13.4895 1.82892 13.443C1.80936 13.4218 1.80336 13.4061 1.80154 13.3993C1.80039 13.395 1.79766 13.3843 1.80429 13.3597L0.259202 12.9441C0.0950121 13.5546 0.285278 14.129 0.65239 14.5273C1.00892 14.9142 1.52894 15.1385 2.07572 15.1385V13.5385ZM8.78936 13.5385H2.07572V15.1385H8.78936V13.5385ZM9.06079 13.3597C9.06742 13.3843 9.06469 13.395 9.06354 13.3993C9.06172 13.4061 9.05572 13.4218 9.03616 13.443C8.99335 13.4895 8.90532 13.5385 8.78936 13.5385V15.1385C9.33614 15.1385 9.85616 14.9142 10.2127 14.5273C10.5798 14.129 10.7701 13.5546 10.6059 12.9441L9.06079 13.3597ZM6.70306 10.8017C7.85137 11.2143 8.74124 12.1716 9.06079 13.3597L10.6059 12.9441C10.1493 11.2466 8.88182 9.88435 7.24406 9.29592L6.70306 10.8017ZM7.14283 8.067C7.14283 8.6154 6.88563 9.10332 6.48203 9.41761L7.46509 10.68C8.24122 10.0756 8.74283 9.12967 8.74283 8.067H7.14283ZM5.43247 6.35664C6.37708 6.35664 7.14283 7.1224 7.14283 8.067H8.74283C8.74283 6.23874 7.26073 4.75664 5.43247 4.75664V6.35664ZM1.78612 14.0954C1.87646 14.123 1.97403 14.1385 2.07572 14.1385V12.5385C2.13589 12.5385 2.19606 12.5476 2.2545 12.5655L1.78612 14.0954ZM5.43254 9.98164C3.45559 9.98164 1.7852 11.2988 1.25296 13.1042L2.78766 13.5566C3.12453 12.4139 4.18327 11.5816 5.43254 11.5816V9.98164ZM9.61212 13.1042C9.07988 11.2988 7.40949 9.98164 5.43254 9.98164V11.5816C6.68181 11.5816 7.74055 12.4139 8.07742 13.5566L9.61212 13.1042ZM8.78936 14.1385C8.89105 14.1385 8.98862 14.123 9.07895 14.0954L8.61059 12.5655C8.66902 12.5476 8.72919 12.5385 8.78936 12.5385V14.1385ZM2.07572 14.1385H8.78936V12.5385H2.07572V14.1385Z" fill="#F9F9F9" mask="url(#path-4-outside-2_1512_28371)"/>
<!--<path d="M8 10.4565H11V9.95654L10.5 9.45654H8V10.4565Z" fill="#F9F9F9"/>-->
<!--<rect x="5" y="11.4565" width="2" height="1" fill="#F9F9F9"/>-->
<!--<rect x="5" y="11.4565" width="2" height="1" fill="#F9F9F9"/>-->
</svg>
