<svg width="16" height="16" viewBox="0 0 16 16" fill="none" xmlns="http://www.w3.org/2000/svg">
<path fill-rule="evenodd" clip-rule="evenodd" d="M6.92575 1C6.09733 1 5.42575 1.67157 5.42575 2.5V3.68519L4.31685 3.06766C3.5984 2.66756 2.67966 2.91359 2.25732 3.61919L1.21101 5.36722C0.782396 6.0833 1.02772 6.99938 1.75684 7.40542L2.82455 8.00002L1.7569 8.59458C1.02778 9.00062 0.782455 9.9167 1.21107 10.6328L2.25738 12.3808C2.67972 13.0864 3.59846 13.3324 4.31691 12.9323L5.42575 12.3148V13.5C5.42575 14.3284 6.09733 15 6.92575 15H9.07272C9.90115 15 10.5727 14.3284 10.5727 13.5V12.3149L11.6815 12.9324C12.3999 13.3325 13.3187 13.0864 13.741 12.3808L14.7873 10.6328C15.2159 9.91671 14.9706 9.00063 14.2415 8.59459L13.1738 8.00002L14.2416 7.40541C14.9707 6.99938 15.216 6.08329 14.7874 5.36722L13.7411 3.61919C13.3187 2.91358 12.4 2.66755 11.6816 3.06765L10.5727 3.68514V2.5C10.5727 1.67157 9.90115 1 9.07272 1H6.92575ZM6.42575 2.5C6.42575 2.22386 6.64961 2 6.92575 2H9.07272C9.34886 2 9.57272 2.22386 9.57272 2.5V4.53589C9.57272 4.71314 9.66656 4.87714 9.81938 4.96695C9.97219 5.05677 10.1611 5.05896 10.316 4.97272L12.1681 3.94131C12.4147 3.804 12.7381 3.89062 12.883 4.13278L13.9294 5.88081C14.068 6.11249 13.9909 6.40037 13.755 6.53175L11.9029 7.56319C11.7444 7.65144 11.6462 7.81862 11.6462 8.00002C11.6462 8.18142 11.7444 8.34859 11.9029 8.43685L13.755 9.46825C13.9909 9.59963 14.068 9.88751 13.9293 10.1192L12.883 11.8672C12.738 12.1094 12.4146 12.196 12.168 12.0587L10.316 11.0273C10.1611 10.9411 9.97219 10.9433 9.81938 11.0331C9.66656 11.1229 9.57272 11.2869 9.57272 11.4641V13.5C9.57272 13.7761 9.34886 14 9.07272 14H6.92575C6.64961 14 6.42575 13.7761 6.42575 13.5V11.4641C6.42575 11.2868 6.33191 11.1228 6.1791 11.033C6.02629 10.9432 5.83735 10.941 5.68249 11.0273L3.83038 12.0587C3.58381 12.196 3.26036 12.1094 3.11541 11.8672L2.06911 10.1192C1.93043 9.8875 2.00752 9.59962 2.24343 9.46824L4.09549 8.43685C4.25398 8.34859 4.35223 8.18142 4.35223 8.00002C4.35223 7.81862 4.25398 7.65144 4.09549 7.56319L2.24337 6.53176C2.00746 6.40038 1.93037 6.1125 2.06905 5.88081L3.11535 4.13278C3.2603 3.89063 3.58375 3.80401 3.83032 3.94132L5.68249 4.97277C5.83735 5.05901 6.02629 5.05682 6.1791 4.967C6.33191 4.87719 6.42575 4.71319 6.42575 4.53594V2.5ZM6.42587 8C6.42587 7.18842 7.11318 6.5 7.99935 6.5C8.88552 6.5 9.57283 7.18842 9.57283 8C9.57283 8.81158 8.88552 9.5 7.99935 9.5C7.11318 9.5 6.42587 8.81158 6.42587 8ZM7.99935 5.5C6.59521 5.5 5.42587 6.60244 5.42587 8C5.42587 9.39756 6.59521 10.5 7.99935 10.5C9.40349 10.5 10.5728 9.39756 10.5728 8C10.5728 6.60244 9.40349 5.5 7.99935 5.5Z" fill="#7D7D7D"/>
</svg>
