<svg width="16" height="17" viewBox="0 0 16 17" fill="none" xmlns="http://www.w3.org/2000/svg">
<path fill-rule="evenodd" clip-rule="evenodd" d="M5.08714 4.6854L5.11826 4.62873L5.96824 2.45654L10.2591 2.45654L10.9762 4.81291L10.9767 4.8172C10.9792 4.84031 10.9829 4.86793 10.9885 4.89881C10.996 4.94 11 4.98309 11 5.02797C11 5.42246 10.6802 5.74226 10.2857 5.74226C10.2469 5.74226 10.2095 5.73925 10.1735 5.73364C9.46783 5.62357 8.64541 5.67424 8.04843 5.73964C8.03286 5.74134 8.01672 5.74226 8 5.74226C7.98328 5.74226 7.96714 5.74134 7.95157 5.73964C7.35459 5.67424 6.53217 5.62357 5.82649 5.73364C5.79051 5.73925 5.75309 5.74226 5.71429 5.74226C5.3198 5.74226 5 5.42246 5 5.02797C5 4.90183 5.03184 4.78612 5.08714 4.6854ZM4 5.02797C4 4.72937 4.07634 4.44861 4.21057 4.20412L5.037 2.09214C5.18701 1.7088 5.55659 1.45654 5.96824 1.45654H10.2591C10.6992 1.45654 11.0876 1.74432 11.2157 2.16538L11.9607 4.61314C11.9667 4.63295 11.9676 4.6539 11.9685 4.67486V4.67489C11.9692 4.69033 11.9698 4.70578 11.9726 4.72079C11.9906 4.82045 12 4.92311 12 5.02797C12 5.71983 11.5902 6.31596 11 6.58682V6.95654C11 7.78497 10.3284 8.45654 9.5 8.45654H8.5V9.45654H12.9C13.2314 9.45654 13.5 9.72517 13.5 10.0565V11.4565H14C14.5523 11.4565 15 11.9043 15 12.4565V14.4565C15 15.0088 14.5523 15.4565 14 15.4565H12C11.4477 15.4565 11 15.0088 11 14.4565V12.4565C11 11.9043 11.4477 11.4565 12 11.4565H12.5V10.4565H8.5V11.4565H9C9.55228 11.4565 10 11.9043 10 12.4565V14.4565C10 15.0088 9.55228 15.4565 9 15.4565H7C6.44772 15.4565 6 15.0088 6 14.4565V12.4565C6 11.9043 6.44772 11.4565 7 11.4565H7.5V10.4565H3.5V11.4565H4C4.55228 11.4565 5 11.9043 5 12.4565V14.4565C5 15.0088 4.55228 15.4565 4 15.4565H2C1.44772 15.4565 1 15.0088 1 14.4565V12.4565C1 11.9043 1.44772 11.4565 2 11.4565H2.5V10.0565C2.5 9.72517 2.76863 9.45654 3.1 9.45654H7.5V8.45654H6.5C5.67157 8.45654 5 7.78497 5 6.95654V6.58682C4.40985 6.31596 4 5.71983 4 5.02797ZM6 6.71873V6.95654C6 7.23269 6.22386 7.45654 6.5 7.45654H9.5C9.77614 7.45654 10 7.23269 10 6.95654V6.71873C9.43181 6.63342 8.72576 6.67142 8.15733 6.73369C8.10566 6.73935 8.05317 6.74226 8 6.74226C7.94683 6.74226 7.89434 6.73935 7.84267 6.73369C7.27424 6.67142 6.56819 6.63342 6 6.71873ZM4 12.4565H2V14.4565H4V12.4565ZM7 14.4565V12.4565H9V14.4565H7ZM14 12.4565H12V14.4565H14V12.4565Z" fill="#707070"/>
</svg>
