<svg width="16" height="17" viewBox="0 0 16 17" fill="none" xmlns="http://www.w3.org/2000/svg">
<path fill-rule="evenodd" clip-rule="evenodd" d="M2.26529 7.96016C2.30898 7.88433 2.34253 7.8031 2.36508 7.71854L3.76828 2.45654L12.2317 2.45654L13.5651 7.45654H8C7.44772 7.45654 7 7.90426 7 8.45654V10.6892C6.88074 10.6202 6.7692 10.5391 6.66692 10.4475C6.28724 10.1077 5.71277 10.1077 5.33309 10.4475C4.97859 10.7648 4.51288 10.9565 4 10.9565C2.89543 10.9565 2 10.0611 2 8.95654C2 8.59178 2.09674 8.25265 2.26529 7.96016ZM7 11.7858C6.62738 11.6541 6.28855 11.4509 6 11.1926C5.46925 11.6677 4.76836 11.9565 4 11.9565C3.82964 11.9565 3.6626 11.9423 3.5 11.9151V13.9565C3.5 14.2327 3.72386 14.4565 4 14.4565H7V11.7858ZM8 15.4565H4C3.17157 15.4565 2.5 14.785 2.5 13.9565V11.5552C1.6033 11.0365 1 10.067 1 8.95654C1 8.4119 1.14514 7.90116 1.39884 7.46088L2.80204 2.19888C2.91878 1.76113 3.31523 1.45654 3.76828 1.45654H12.2317C12.6848 1.45654 13.0812 1.76113 13.198 2.19888L14.6012 7.46088C14.6701 7.58054 14.731 7.7054 14.7832 7.83474C14.9189 8.00544 15 8.22153 15 8.45654V14.4565C15 15.0088 14.5523 15.4565 14 15.4565H9.5H8ZM8 8.45654H14V14.4565H13V12.9565C13 12.6804 12.7761 12.4565 12.5 12.4565C12.2239 12.4565 12 12.6804 12 12.9565V14.4565H11.5V12.4565C11.5 12.1804 11.2761 11.9565 11 11.9565C10.7239 11.9565 10.5 12.1804 10.5 12.4565V14.4565H10V13.4565C10 13.1804 9.77614 12.9565 9.5 12.9565C9.22386 12.9565 9 13.1804 9 13.4565V14.4565H8V8.45654ZM13.4187 9.72999C13.5697 9.49879 13.5047 9.18896 13.2735 9.03797C13.0422 8.88697 12.7324 8.952 12.5814 9.18321L11.7533 10.4513L10.7321 9.55772C10.3661 9.23748 9.80137 9.31517 9.53545 9.72235L8.58142 11.1832C8.43043 11.4144 8.49546 11.7242 8.72666 11.8752C8.95787 12.0262 9.2677 11.9612 9.41869 11.73L10.2468 10.4619L11.268 11.3555C11.634 11.6757 12.1987 11.598 12.4647 11.1908L13.4187 9.72999Z" fill="#707070"/>
</svg>
