<svg width="16" height="16" viewBox="0 0 16 16" fill="none" xmlns="http://www.w3.org/2000/svg">
<path fill-rule="evenodd" clip-rule="evenodd" d="M7 2.5C7 2.22386 7.22386 2 7.5 2H9C9.27614 2 9.5 2.22386 9.5 2.5V10V14H7V7V2.5ZM10 15H6.5H3H1.5C1.22386 15 1 14.7761 1 14.5C1 14.2239 1.22386 14 1.5 14H2.5V7C2.5 6.17157 3.17157 5.5 4 5.5H5.5C5.67532 5.5 5.84361 5.53008 6 5.58535V2.5C6 1.67157 6.67157 1 7.5 1H9C9.82843 1 10.5 1.67157 10.5 2.5V8.58535C10.6564 8.53008 10.8247 8.5 11 8.5H12.5C13.3284 8.5 14 9.17157 14 10V14H14.5C14.7761 14 15 14.2239 15 14.5C15 14.7761 14.7761 15 14.5 15H13.5H10ZM10.5 14H13V10C13 9.72386 12.7761 9.5 12.5 9.5H11C10.7239 9.5 10.5 9.72386 10.5 10V14ZM6 7V14H3.5V7C3.5 6.72386 3.72386 6.5 4 6.5H5.5C5.77614 6.5 6 6.72386 6 7Z" fill="#7D7D7D"/>
</svg>
