<svg width="16" height="17" viewBox="0 0 16 17" fill="none" xmlns="http://www.w3.org/2000/svg">
<path fill-rule="evenodd" clip-rule="evenodd" d="M8.5 3.15649C8.5 2.88035 8.27614 2.65649 8 2.65649C7.72386 2.65649 7.5 2.88035 7.5 3.15649H8.5ZM8 1.65649C7.17157 1.65649 6.5 2.32807 6.5 3.15649V3.58665C4.89149 4.19253 3.74722 5.74569 3.74722 7.5661V8.33811C2.7521 9.37741 2.13989 10.7884 2.13989 12.3415C2.13989 12.6761 2.41111 12.9473 2.74568 12.9473H5.40299C5.6364 14.168 6.70665 15.1049 7.99913 15.1049C9.2916 15.1049 10.3619 14.168 10.5953 12.9473H13.2512C13.5857 12.9473 13.857 12.6761 13.857 12.3415C13.857 10.7881 13.2446 9.37697 12.2492 8.33763V7.5661C12.2492 5.74705 11.1066 4.19486 9.5 3.58802V3.15649C9.5 2.32807 8.82843 1.65649 8 1.65649ZM6.43272 12.9473H9.56553C9.35379 13.6167 8.72981 14.1049 7.99913 14.1049C7.26845 14.1049 6.64446 13.6167 6.43272 12.9473ZM10.1425 11.9473H12.841C12.744 10.7558 12.2112 9.68809 11.4011 8.90268C11.304 8.80851 11.2492 8.679 11.2492 8.54371V7.5661C11.2492 5.77063 9.79365 4.31512 7.99819 4.31512C6.20273 4.31512 4.74722 5.77064 4.74722 7.5661V8.54417C4.74722 8.67943 4.69241 8.80893 4.59531 8.9031C3.78549 9.68846 3.25284 10.756 3.15587 11.9473H5.8339C5.84113 11.947 5.8484 11.9468 5.85571 11.9468H10.1425V11.9473Z" fill="#7D7D7D"/>
</svg>
