<svg width="16" height="17" viewBox="0 0 16 17" fill="none" xmlns="http://www.w3.org/2000/svg">
<path fill-rule="evenodd" clip-rule="evenodd" d="M8.23705 2.65205C8.08906 2.57236 7.91094 2.57236 7.76295 2.65205L2.26295 5.61359C2.101 5.70079 2 5.86988 2 6.05382V13.9565C2 14.2327 2.22386 14.4565 2.5 14.4565H5C5.27614 14.4565 5.5 14.2327 5.5 13.9565V11.4565C5.5 10.6281 6.17157 9.95653 7 9.95653H9C9.82843 9.95653 10.5 10.6281 10.5 11.4565V13.9565C10.5 14.2327 10.7239 14.4565 11 14.4565H13.5C13.7761 14.4565 14 14.2327 14 13.9565V6.05382C14 5.86988 13.899 5.70079 13.7371 5.61359L8.23705 2.65205ZM7.28885 1.77158C7.73281 1.53252 8.26719 1.53252 8.71115 1.77158L14.2112 4.73312C14.697 4.99474 15 5.502 15 6.05382V13.9565C15 14.785 14.3284 15.4565 13.5 15.4565H11C10.1716 15.4565 9.5 14.785 9.5 13.9565V11.4565C9.5 11.1804 9.27614 10.9565 9 10.9565H7C6.72386 10.9565 6.5 11.1804 6.5 11.4565V13.9565C6.5 14.785 5.82843 15.4565 5 15.4565H2.5C1.67157 15.4565 1 14.785 1 13.9565V6.05382C1 5.502 1.30299 4.99474 1.78885 4.73312L7.28885 1.77158Z" fill="#707070"/>
</svg>
